<svg width="235" height="47" viewBox="0 0 235 47" fill="none" xmlns="http://www.w3.org/2000/svg">
<path d="M88.0398 23.32C88.0398 22.32 88.3331 21.48 88.9198 20.8C89.5064 20.12 90.3198 19.5067 91.3598 18.96C90.8931 18.4133 90.5064 17.8733 90.1998 17.34C89.9064 16.7933 89.7598 16.2133 89.7598 15.6C89.7598 14.76 90.0464 14.0667 90.6198 13.52C91.2064 12.96 91.9664 12.68 92.8998 12.68C93.8731 12.68 94.6198 12.9467 95.1398 13.48C95.6598 14 95.9198 14.66 95.9198 15.46C95.9198 16.3133 95.6664 17.0067 95.1598 17.54C94.6531 18.0733 93.8998 18.62 92.8998 19.18L96.9398 23.86C97.1531 23.38 97.3131 22.8533 97.4198 22.28C97.5264 21.6933 97.5798 21.0667 97.5798 20.4H98.6798C98.6798 21.2267 98.5931 22.0067 98.4198 22.74C98.2598 23.4733 98.0064 24.1267 97.6598 24.7L99.6398 27H98.2398L97.0198 25.58C96.5398 26.1267 95.9531 26.5533 95.2598 26.86C94.5664 27.1667 93.7598 27.32 92.8398 27.32C91.7198 27.32 90.8064 27.1467 90.0998 26.8C89.3931 26.4533 88.8731 25.98 88.5398 25.38C88.2064 24.78 88.0398 24.0933 88.0398 23.32ZM89.2598 23.18C89.2598 24.14 89.5464 24.9067 90.1198 25.48C90.6931 26.0533 91.6398 26.34 92.9598 26.34C93.7198 26.34 94.3798 26.2067 94.9398 25.94C95.5131 25.6733 95.9864 25.3 96.3598 24.82L91.9598 19.66C91.0531 20.1667 90.3731 20.68 89.9198 21.2C89.4798 21.72 89.2598 22.38 89.2598 23.18ZM90.8798 15.62C90.8798 16.1 91.0131 16.5733 91.2798 17.04C91.5464 17.4933 91.8931 17.9733 92.3198 18.48C93.1331 18.0533 93.7531 17.6267 94.1798 17.2C94.6198 16.76 94.8398 16.2067 94.8398 15.54C94.8398 14.9133 94.6598 14.4333 94.2998 14.1C93.9531 13.7667 93.4864 13.6 92.8998 13.6C92.2731 13.6 91.7798 13.78 91.4198 14.14C91.0598 14.4867 90.8798 14.98 90.8798 15.62Z" fill="#EEEEEE"/>
<path d="M228.19 42.1416C226.909 45.4086 225.504 46.5381 222.97 46.5381V46.54C222.207 46.54 221.565 46.5094 220.893 46.418V44.8291H222.908C224.801 44.8291 225.687 44.0356 226.604 41.4707L226.969 40.4932L220.526 24.7695H222.725L225.778 32.708C226.389 34.3561 227.182 36.3409 227.945 38.2949L232.923 24.7686H235L228.19 42.1416ZM144.788 24.4043C148.36 24.4044 150.742 26.6939 151.078 30.2666H149.216C148.789 27.6715 147.17 26.1143 144.788 26.1143C142.132 26.1143 139.72 28.5885 139.72 32.71C139.72 36.8314 142.133 39.3036 144.788 39.3037C147.17 39.3036 148.848 37.7467 149.307 35.1514H151.17C150.713 38.6633 148.361 41.0136 144.788 41.0137C140.91 41.0136 137.582 37.7785 137.582 32.71C137.582 27.6413 140.972 24.4044 144.788 24.4043ZM180.63 40.6465H178.675V36.8916C177.912 39.2419 175.774 41.0125 173.18 41.0127C169.394 41.0126 166.279 37.7768 166.279 32.708C166.279 27.6396 169.577 24.4025 173.119 24.4023C175.592 24.4023 177.761 25.9595 178.615 28.2803V18.4805H180.63V40.6465ZM158.466 24.4023C162.343 24.4025 164.206 26.5702 164.206 30.1113V36.0957C164.206 38.1107 164.389 39.546 164.693 40.6455H162.739L162.738 40.6465C162.494 39.7614 162.342 38.7222 162.312 37.3789C161.487 39.4864 159.412 41.0116 156.816 41.0117C154.221 41.0117 152.267 39.6073 152.267 36.8291C152.267 34.295 154.098 32.5853 158.068 31.9746L162.251 31.334V30.2344C162.251 27.5477 160.846 26.1123 158.403 26.1123C155.961 26.1124 154.526 27.3343 154.343 30.2646H152.572C152.694 26.4176 155.26 24.4024 158.466 24.4023ZM189.999 24.4023C194.029 24.4026 196.441 27.6695 196.38 32.8281H184.87L184.871 32.8311C184.932 37.0744 187.345 39.3027 190 39.3027C192.655 39.3026 194.121 37.6841 194.61 35.334H196.411C195.892 38.7228 193.418 41.0117 189.968 41.0117C185.999 41.0115 182.823 37.9583 182.823 32.708C182.823 27.4576 185.969 24.4024 189.999 24.4023ZM214.941 24.4053C218.117 24.4053 219.858 26.8167 219.858 30.7246V40.6484H217.843V30.999C217.843 27.8858 216.438 26.1445 214.087 26.1445C211.889 26.1447 210.241 27.8849 210.241 30.999V40.6484H208.225V30.999C208.224 27.8858 206.82 26.1445 204.47 26.1445C202.272 26.1447 200.622 27.8848 200.622 30.999V40.6484H198.607V24.7715H200.562V27.8555C201.325 25.8101 202.943 24.4054 205.324 24.4053C207.583 24.4053 209.446 25.6568 209.996 28.375C210.668 26.0553 212.377 24.4055 214.941 24.4053ZM137.769 40.6475H135.417L133.158 34.4492H123.205L120.945 40.6475H118.656L126.839 18.8477H129.585L137.769 40.6475ZM158.618 33.3486C155.534 33.8069 154.281 35.0281 154.281 36.7383C154.281 38.3567 155.473 39.3318 157.365 39.332C159.869 39.3319 162.312 37.7149 162.312 34.9053V32.7988L158.618 33.3486ZM173.638 26.1143C170.737 26.1143 168.416 28.6486 168.416 32.709C168.416 36.7696 170.736 39.3036 173.638 39.3037C176.202 39.3036 178.675 37.2882 178.675 33.0752V32.3428C178.675 28.1299 176.171 26.1143 173.638 26.1143ZM123.846 32.5869H132.518L128.181 20.6787H128.12L123.846 32.5869ZM189.999 26.0527C187.434 26.0528 185.45 27.9766 184.992 31.2119H194.426C193.999 27.4575 192.259 26.0529 189.999 26.0527ZM146.528 1.38965C150.985 1.38976 153.917 3.74157 153.917 7.46582C153.917 10.4277 151.779 12.6865 148.604 13.2363C150.925 13.6327 152.084 14.641 153.153 17.1445L153.152 17.1455L155.778 23.1904H153.367L151.077 17.7246C149.917 14.9762 148.695 14.1826 144.94 14.1826H140.239V23.1895H138.071V1.38965H146.528ZM137.14 0.165039L131.164 5.59375L137.769 23.1895H135.417L133.157 16.9912H123.204L120.944 23.1895H118.655L122.202 13.7354L113.149 21.9619L113 21.7969L136.989 0L137.14 0.165039ZM125.383 10.8467L123.846 15.1289H132.518L129.571 7.04102L125.383 10.8467ZM140.239 12.2891H146.253C149.49 12.2889 151.688 10.5185 151.688 7.70996C151.688 4.90159 149.581 3.28333 146.376 3.2832H140.239V12.2891Z" fill="#EEEEEE"/>
<path d="M42.1338 0.296875L31.7051 9.77246L31.7207 9.78809L43.252 40.5342H39.1494L35.2021 29.7041H17.8262L13.8789 40.5342H9.88477L16.0703 24.0098L0.264648 38.3867L0 38.0908L41.8691 0.000976562L42.1338 0.296875ZM58.4775 2.42773C66.2637 2.42773 71.3777 6.53533 71.3779 13.0391C71.3779 18.2203 67.6477 22.1572 62.0996 23.1221C66.1557 23.8223 68.1761 25.581 70.041 29.9531L70.0254 29.9688L74.6104 40.5342H70.3984L66.4043 30.9805C64.3839 26.1726 62.2546 24.7872 55.6963 24.7871H47.4902V40.5186H43.7139V2.42773H58.4775ZM21.6182 18.9531L18.9297 26.4365H34.0674L28.9229 12.3086L21.6182 18.9531ZM47.5059 5.74219V21.4727H58.0117C63.6532 21.4726 67.492 18.3767 67.4922 13.4756C67.4922 8.57427 63.8088 5.74223 58.2139 5.74219H47.5059Z" fill="#EEEEEE"/>
</svg>
